<svg id="visual" viewBox="0 0 900 600" width="900" height="600" xmlns="http://www.w3.org/2000/svg" xmlns:xlink="http://www.w3.org/1999/xlink" version="1.1"><rect x="0" y="0" width="900" height="600" fill="#000000"></rect><path d="M0 415L21.5 429.2C43 443.3 86 471.7 128.8 475.5C171.7 479.3 214.3 458.7 257.2 461.5C300 464.3 343 490.7 385.8 502.7C428.7 514.7 471.3 512.3 514.2 489C557 465.7 600 421.3 642.8 411.7C685.7 402 728.3 427 771.2 444.8C814 462.7 857 473.3 878.5 478.7L900 484L900 601L878.5 601C857 601 814 601 771.2 601C728.3 601 685.7 601 642.8 601C600 601 557 601 514.2 601C471.3 601 428.7 601 385.8 601C343 601 300 601 257.2 601C214.3 601 171.7 601 128.8 601C86 601 43 601 21.5 601L0 601Z" fill="#ff0000" stroke-linecap="round" stroke-linejoin="miter"></path></svg>